<?xml version="1.0" standalone="no"?>
<!DOCTYPE svg PUBLIC "-//W3C//DTD SVG 20010904//EN"
 "http://www.w3.org/TR/2001/REC-SVG-20010904/DTD/svg10.dtd">
<svg version="1.0" xmlns="http://www.w3.org/2000/svg"
 width="512.000000pt" height="512.000000pt" viewBox="0 0 512.000000 512.000000"
 preserveAspectRatio="xMidYMid meet">

<g transform="translate(0.000000,512.000000) scale(0.100000,-0.100000)"
fill="#000000" stroke="none">
<path d="M2840 4550 c-14 -14 -20 -33 -20 -64 l0 -43 -42 -6 c-46 -6 -78 -35
-78 -69 0 -32 45 -68 85 -68 l35 0 0 -184 0 -185 26 -20 c33 -26 58 -27 84 -1
19 19 20 33 20 205 l0 185 40 0 c48 0 80 27 80 68 0 38 -29 62 -79 69 l-41 6
0 47 c0 33 -5 52 -18 63 -25 23 -68 21 -92 -3z"/>
<path d="M1853 3761 c-185 -68 -284 -270 -223 -451 55 -165 195 -258 369 -248
261 15 414 296 289 530 -61 115 -166 179 -303 185 -61 3 -93 -1 -132 -16z
m181 -125 c66 -20 110 -57 140 -118 35 -70 34 -128 -1 -199 -67 -132 -232
-167 -342 -72 -56 48 -81 99 -81 168 0 113 67 199 175 226 46 11 58 10 109 -5z"/>
<path d="M3685 3771 c-101 -26 -197 -109 -243 -209 -22 -48 -27 -71 -26 -142
0 -110 32 -186 110 -260 82 -77 128 -95 249 -95 95 0 103 2 163 34 141 77 213
218 191 376 -23 168 -165 295 -337 301 -42 2 -90 0 -107 -5z m149 -135 c67
-20 114 -61 142 -120 71 -153 -34 -320 -201 -320 -268 0 -311 381 -50 445 46
11 58 10 109 -5z"/>
<path d="M2802 3684 c-158 -78 -197 -292 -77 -418 27 -27 27 -29 9 -39 -45
-25 -126 -114 -151 -166 -25 -49 -28 -70 -32 -173 -2 -65 -6 -118 -10 -118 -3
0 -51 38 -106 85 -55 47 -125 97 -155 113 l-55 27 -225 0 c-271 0 -258 4 -442
-149 -142 -119 -182 -162 -212 -225 -20 -43 -21 -65 -24 -384 -3 -290 -1 -346
13 -387 19 -58 81 -131 141 -166 l44 -26 0 -351 c0 -201 5 -371 11 -396 27
-119 129 -250 237 -305 247 -125 539 -33 657 208 48 98 55 160 55 526 l0 315
55 33 c61 37 94 75 127 148 20 45 23 67 26 269 l4 221 54 -27 c82 -41 156 -54
233 -40 64 12 131 40 164 69 16 14 17 0 17 -277 l0 -292 25 -24 c13 -14 36
-25 50 -25 14 0 25 -4 25 -8 0 -5 -38 -112 -85 -237 -47 -126 -85 -238 -85
-250 0 -12 9 -30 21 -41 18 -16 40 -20 139 -22 l118 -4 4 -131 c3 -124 5 -136
35 -199 148 -313 581 -313 735 -1 32 64 33 73 36 200 l4 133 120 0 c147 0 178
12 178 71 0 14 -38 129 -85 254 -47 126 -85 230 -85 231 0 1 11 5 25 8 56 14
57 22 53 413 -5 404 -7 414 -82 568 -73 147 -184 253 -305 289 -85 25 -388 23
-464 -3 -70 -24 -128 -64 -188 -128 l-46 -49 -7 89 c-11 144 -63 248 -157 311
-47 32 -48 34 -30 50 31 28 69 109 76 162 28 205 -196 361 -383 268z m173
-118 c92 -39 101 -179 15 -230 -16 -9 -49 -16 -74 -16 -132 0 -174 184 -55
243 42 20 70 21 114 3z m15 -436 c45 -12 94 -48 126 -91 19 -26 22 -36 12 -45
-15 -14 -435 -274 -443 -274 -10 0 -5 202 7 248 14 56 94 142 148 159 45 14
106 15 150 3z m-765 -287 c59 -32 276 -222 300 -263 19 -33 20 -54 23 -325 2
-159 0 -309 -3 -333 -8 -51 -50 -104 -106 -133 l-39 -19 -5 22 c-46 197 -55
274 -55 483 0 227 -1 230 -53 248 -25 9 -73 -18 -81 -45 -3 -13 -6 -113 -6
-224 0 -190 2 -210 35 -374 19 -95 35 -175 35 -177 0 -1 -31 -19 -70 -38 -69
-35 -70 -35 -201 -35 l-132 0 -66 36 c-36 20 -67 37 -69 39 -2 2 13 84 32 183
34 169 36 194 36 370 0 211 -6 244 -51 263 -26 10 -34 9 -57 -8 l-27 -20 -6
-244 c-6 -208 -10 -261 -32 -357 -13 -62 -27 -115 -29 -118 -10 -10 -103 63
-123 96 -19 33 -20 51 -20 350 0 383 -10 353 162 498 137 114 162 132 206 143
17 4 106 7 197 6 148 -2 169 -4 205 -24z m925 -282 c-45 -170 -275 -229 -395
-103 -46 49 -68 94 -52 108 6 7 111 73 232 147 l220 136 3 -125 c1 -69 -2
-142 -8 -163z m898 -1523 c-3 -85 -9 -124 -25 -158 -24 -53 -80 -112 -132
-136 -45 -22 -157 -30 -204 -15 -57 19 -120 74 -152 132 -27 50 -30 64 -33
172 l-4 117 277 0 278 0 -5 -112z"/>
</g>
</svg>
